<svg width="45" height="45" viewBox="0 0 45 45" fill="none" xmlns="http://www.w3.org/2000/svg">
<path d="M25.8989 5.88487C28.7852 6.33187 31.4625 7.34742 33.6412 8.82131C35.7482 10.2468 37.2972 12.0328 38.1212 13.9866C38.2627 14.3227 38.5885 14.5246 38.9315 14.5246C39.0454 14.5246 39.1611 14.5023 39.2727 14.4552C39.7201 14.2664 39.9295 13.7511 39.741 13.3037C38.7845 11.0354 37.0157 8.98198 34.6262 7.36528C32.2339 5.74685 29.3091 4.63414 26.1677 4.14765C25.6888 4.0735 25.2391 4.40206 25.1649 4.88202C25.0904 5.3613 25.419 5.81037 25.8989 5.88487Z" fill="#CF7500"/>
<path d="M8.81997 12.4781C8.95901 12.8118 9.31298 13.0367 9.67415 13.0195C10.0309 13.0023 10.3584 12.75 10.4669 12.4098C10.5767 12.0654 10.4538 11.6634 10.1654 11.444C9.8671 11.2174 9.42868 11.2092 9.12244 11.4255C8.79662 11.6555 8.66925 12.1104 8.81997 12.4781Z" fill="#CF7500"/>
<path d="M13.0545 9.20518C13.1949 9.54267 13.555 9.76995 13.9207 9.7466C14.2733 9.7236 14.5939 9.47229 14.7021 9.13617C14.8123 8.79423 14.6887 8.39597 14.4051 8.17556C14.1054 7.94313 13.6594 7.93352 13.3518 8.15633C13.0318 8.38807 12.902 8.83954 13.0545 9.20518Z" fill="#CF7500"/>
<path d="M17.6035 12.4781C17.7426 12.8118 18.0969 13.0367 18.4581 13.0195C18.8148 13.0023 19.143 12.75 19.2515 12.4098C19.3614 12.0651 19.2378 11.663 18.949 11.444C18.6507 11.2174 18.2126 11.2092 17.906 11.4255C17.5805 11.6555 17.4528 12.1104 17.6035 12.4781Z" fill="#CF7500"/>
<path d="M45 28.1195C45 26.1842 43.7565 24.5349 42.0272 23.9255V21.7262C42.3053 21.6235 42.5731 21.4882 42.8247 21.3193C43.8255 20.6467 44.3995 19.5852 44.3995 18.4059C44.3995 17.6684 44.1716 16.9704 43.7479 16.3834C43.9621 15.8756 44.0267 15.3119 43.9227 14.7564C43.1701 10.7312 40.5856 7.0467 36.6452 4.3808C32.7207 1.72588 27.6972 0.263672 22.5 0.263672C17.3028 0.263672 12.2793 1.72588 8.35476 4.3808C4.41444 7.04636 1.82991 10.7312 1.07735 14.7564C0.946884 15.453 1.08112 16.1623 1.44436 16.7579C1.17073 17.2599 1.02825 17.8188 1.02825 18.4059C1.02825 19.5852 1.60229 20.6474 2.60342 21.3197C2.72289 21.4 2.84683 21.4718 2.97283 21.5373V23.9255C1.24352 24.5349 0 26.1842 0 28.1195V28.298C0 29.58 0.546227 30.7363 1.41724 31.5486C1.16318 32.0375 1.02825 32.5813 1.02825 33.1413C1.02825 34.0212 1.34823 34.8352 1.92604 35.4714V38.643C1.92604 42.0313 4.68258 44.7882 8.07117 44.7882H36.9288C40.3174 44.7882 43.074 42.0313 43.074 38.643V35.87C43.9196 35.1961 44.3995 34.218 44.3995 33.1409C44.3995 32.4656 44.2093 31.8264 43.854 31.2736C44.5657 30.4853 45 29.4416 45 28.298V28.1195ZM43.2422 28.1195V28.298C43.2422 29.2054 42.7897 30.0088 42.0989 30.496C41.6488 30.8132 41.1047 30.9863 40.554 30.9863H26.9251L32.5298 25.4313H40.5536C42.0361 25.4313 43.2422 26.6374 43.2422 28.1195ZM13.3213 25.4313L13.4607 25.571L14.3622 26.4722L12.475 28.3598L9.54643 25.4313H13.3213ZM21.6197 31.2437L16.2275 25.8519C16.2275 25.8515 16.2271 25.8512 16.2268 25.8508L15.8073 25.4313H30.0291L24.1552 31.2403C24.1548 31.2407 24.1545 31.241 24.1541 31.2417C24.1534 31.2424 24.1524 31.2431 24.1517 31.2437L22.8856 32.5099L21.6197 31.2437ZM2.80495 15.0791C3.47065 11.5195 5.79151 8.237 9.33975 5.83649C12.9766 3.37624 17.6502 2.02148 22.5 2.02148C27.3498 2.02148 32.0234 3.37624 35.6602 5.83649C39.2085 8.237 41.529 11.5195 42.1951 15.0791C42.3183 15.7393 41.791 16.37 41.1208 16.37H3.8792C3.20801 16.37 2.68169 15.7393 2.80495 15.0791ZM2.85095 17.9366C3.17745 18.0629 3.52936 18.1278 3.8792 18.1278H41.1208C41.6059 18.1278 42.0938 18.0021 42.5167 17.7642C42.5995 17.9675 42.6417 18.1862 42.6417 18.4055C42.6417 18.9895 42.3513 19.5196 41.8445 19.8598C41.3264 20.208 40.6666 20.2914 40.074 20.104C39.7812 20.0113 39.5048 19.8918 39.2027 19.8272C38.8758 19.7572 38.5414 19.7263 38.2074 19.7263C36.6373 19.7263 35.7948 20.3209 35.1181 20.7985C34.5242 21.218 34.0552 21.5493 33.0431 21.5493C32.031 21.5493 31.562 21.218 30.9681 20.7988C30.2914 20.3206 29.4492 19.7263 27.8788 19.7263C26.3088 19.7263 25.4667 20.3209 24.79 20.7988C24.196 21.218 23.727 21.5493 22.7149 21.5493C21.7028 21.5493 21.2335 21.218 20.6395 20.7985C19.9628 20.3206 19.1207 19.7263 17.5507 19.7263C15.9806 19.7263 15.1381 20.3209 14.4614 20.7985C13.8675 21.218 13.3982 21.5493 12.3864 21.5493C11.3739 21.5493 10.905 21.218 10.3107 20.7985C9.63398 20.3206 8.79181 19.7263 7.22145 19.7263C6.60038 19.7263 6.04042 19.8317 5.5093 20.0483C4.88205 20.3045 4.14803 20.2396 3.5836 19.8602C3.07686 19.52 2.78641 18.9899 2.78641 18.4059C2.78606 18.2442 2.80804 18.0869 2.85095 17.9366ZM4.9054 21.9565C5.36648 21.9342 5.79906 21.8178 6.22822 21.6544C6.65634 21.491 7.12326 21.4587 7.57679 21.4992C8.3527 21.5682 8.77705 21.8679 9.29684 22.2346C9.97353 22.7125 10.8157 23.3072 12.3861 23.3072C13.9561 23.3072 14.7982 22.7125 15.4749 22.2346C16.0689 21.8154 16.5382 21.4841 17.5503 21.4841C18.5624 21.4841 19.0314 21.8154 19.6254 22.2346C20.302 22.7125 21.1446 23.3072 22.7146 23.3072C24.2846 23.3072 25.1268 22.7125 25.8035 22.2346C26.3974 21.8154 26.8667 21.4841 27.8785 21.4841C28.8906 21.4841 29.3599 21.8154 29.9539 22.2346C30.6306 22.7125 31.4727 23.3072 33.0428 23.3072C34.6128 23.3072 35.4549 22.7125 36.1316 22.2346C36.7259 21.8154 37.1949 21.4841 38.207 21.4841C38.5661 21.4841 38.9187 21.5438 39.2535 21.6753C39.58 21.8037 39.9199 21.8961 40.269 21.937V23.6738H32.1683C32.168 23.6738 32.168 23.6738 32.1676 23.6738H32.1673H13.6879C13.6872 23.6738 13.6862 23.6738 13.6855 23.6738C13.6845 23.6738 13.6835 23.6738 13.6828 23.6738H4.73064V21.9613C4.78901 21.961 4.84703 21.9593 4.9054 21.9565ZM1.75781 28.1195C1.75781 26.6374 2.96391 25.4313 4.44603 25.4313H7.06078L11.8536 30.2244C12.0184 30.3892 12.2419 30.4816 12.475 30.4816C12.7081 30.4816 12.9316 30.3892 13.0964 30.2244L15.6054 27.7154L18.8762 30.9863H4.44603C3.98151 30.9863 3.51974 30.8633 3.11668 30.633C2.30576 30.1698 1.75781 29.2971 1.75781 28.298V28.1195ZM2.93129 32.478C3.41503 32.6534 3.93139 32.7441 4.44603 32.7441H20.634L22.2641 34.3742C22.6013 34.7117 23.166 34.7123 23.5042 34.3769L25.1518 32.7441H40.5536C41.0494 32.7441 41.5445 32.66 42.0127 32.4979C42.1109 32.4639 42.2112 32.4296 42.3035 32.3822C42.3334 32.3668 42.3767 32.3324 42.412 32.3348C42.4608 32.3383 42.4735 32.4004 42.491 32.4395C42.5861 32.6493 42.6369 32.879 42.641 33.1094C42.6558 33.9385 42.0588 34.6323 41.2791 34.8582C40.8324 34.988 40.3487 34.9592 39.9181 34.7834C39.388 34.5668 38.8281 34.4614 38.207 34.4614C36.637 34.4614 35.7948 35.056 35.1181 35.5339C34.5238 35.9534 34.0549 36.2848 33.0428 36.2848C32.031 36.2848 31.5617 35.9534 30.9677 35.5339C30.291 35.056 29.4489 34.4614 27.8788 34.4614C26.3088 34.4614 25.4667 35.056 24.7896 35.5339C24.1957 35.9534 23.7267 36.2848 22.7146 36.2848C21.7025 36.2848 21.2335 35.9534 20.6392 35.5339C19.9625 35.056 19.1203 34.4614 17.5503 34.4614C15.9803 34.4614 15.1381 35.056 14.4611 35.5339C13.8671 35.9534 13.3982 36.2848 12.3861 36.2848C11.3736 36.2848 10.9046 35.9531 10.3107 35.5339C9.63364 35.056 8.79147 34.4614 7.22111 34.4614C6.60004 34.4614 6.04008 34.5668 5.5093 34.7837C4.93561 35.0179 4.26682 34.987 3.7254 34.6821C3.24646 34.4126 2.88975 33.9505 2.80598 33.4015C2.78091 33.2391 2.77954 33.073 2.80117 32.9099C2.80735 32.8625 2.88803 32.4622 2.93129 32.478ZM41.3161 38.643C41.3161 41.0621 39.3479 43.0304 36.9288 43.0304H8.07117C5.65212 43.0304 3.68385 41.0621 3.68385 38.643V36.5584C4.40552 36.763 5.18452 36.7486 5.92678 36.5017C5.94189 36.4966 5.95699 36.4914 5.97176 36.4866C6.03939 36.4629 6.10703 36.4386 6.17363 36.4111C6.48949 36.282 6.83212 36.2195 7.22111 36.2195C8.23357 36.2195 8.70255 36.5505 9.29649 36.97C9.97353 37.4479 10.8157 38.0426 12.3861 38.0426C13.9561 38.0426 14.7982 37.4479 15.4749 36.97C16.0689 36.5505 16.5382 36.2195 17.55 36.2195C18.5621 36.2195 19.0314 36.5505 19.6254 36.97C20.302 37.4479 21.1442 38.0426 22.7146 38.0426C24.2846 38.0426 25.1268 37.4479 25.8035 36.97C26.3974 36.5505 26.8667 36.2195 27.8785 36.2195C28.8906 36.2195 29.3599 36.5505 29.9535 36.97C30.6302 37.4479 31.4727 38.0426 33.0428 38.0426C34.6128 38.0426 35.4549 37.4479 36.1316 36.97C36.7256 36.5505 37.1949 36.2195 38.207 36.2195C38.469 36.2195 38.7316 36.2487 38.9846 36.3191C39.2253 36.386 39.4526 36.4918 39.6933 36.5598C40.2158 36.707 40.7799 36.7383 41.3158 36.6511V38.643H41.3161Z" fill="#CF7500"/>
<path d="M19.8554 9.2052C19.9944 9.53891 20.3488 9.7655 20.7103 9.74696C21.067 9.72876 21.3942 9.47745 21.503 9.13756C21.6136 8.79286 21.4896 8.39152 21.2016 8.17145C20.9039 7.94383 20.4648 7.93524 20.1589 8.15257C19.8345 8.38259 19.7019 8.8375 19.8554 9.2052Z" fill="#CF7500"/>
<path d="M23.8201 13.0792C23.9591 13.4133 24.3131 13.6378 24.6743 13.6206C25.0313 13.6035 25.3578 13.3508 25.4673 13.0112C25.5782 12.6669 25.454 12.2645 25.1656 12.0451C24.8672 11.8182 24.4288 11.8106 24.1226 12.0266C23.7971 12.2566 23.6694 12.7115 23.8201 13.0792Z" fill="#CF7500"/>
<path d="M21.5761 5.18761C21.8889 5.39601 22.3287 5.37541 22.6195 5.13714C22.9038 4.90437 23.0174 4.49204 22.8863 4.14803C22.7585 3.81397 22.42 3.57605 22.0613 3.57777C21.7063 3.57983 21.3688 3.81294 21.2431 4.14528C21.1027 4.51744 21.2462 4.96582 21.5761 5.18761Z" fill="#CF7500"/>
</svg>
